# xmcd CD database file
#
# Track frame offsets:
#	150
#	23120
#	40228
#	59133
#
# Disc length: 1091 seconds
#
# Revision: 3
# Processed by: cddbd v1.5.2PL0 Copyright (c) Steve Scherf et al.
# Submitted via: CDex 1.70beta2
#
DISCID=32044104
DTITLE=GARNET CROW - Doing all right (B TYPE)
DYEAR=2009
DGENRE=JPop
TTITLE0=Doing all right
TTITLE1=Nora
TTITLE2=Nora (Orchestra vocal ver.)
TTITLE3=Doing all right (Instrumental)
EXTD=YEAR: 2009
EXTT0=
EXTT1=
EXTT2=
EXTT3=
PLAYORDER=
